<svg width="70" height="70" viewBox="0 0 70 70" fill="none" xmlns="http://www.w3.org/2000/svg">
<path d="M34.5176 0C27.8101 0.0127441 21.2511 1.97578 15.6394 5.65001C10.0277 9.32424 5.60562 14.5511 2.91173 20.6939C0.217849 26.8367 -0.631554 33.6303 0.466986 40.2472C1.56553 46.8642 4.5646 53.0189 9.0989 57.9617C12.3374 61.472 16.2678 64.2736 20.6426 66.1898C25.0174 68.1059 29.7416 69.0952 34.5176 69.0952C39.2937 69.0952 44.0179 68.1059 48.3927 66.1898C52.7675 64.2736 56.6979 61.472 59.9364 57.9617C64.4707 53.0189 67.4698 46.8642 68.5683 40.2472C69.6669 33.6303 68.8175 26.8367 66.1236 20.6939C63.4297 14.5511 59.0076 9.32424 53.3959 5.65001C47.7842 1.97578 41.2252 0.0127441 34.5176 0ZM34.5176 62.25C27.3536 62.2391 20.4731 59.4497 15.3239 54.4688C16.8872 50.663 19.5466 47.4079 22.9642 45.117C26.3818 42.8262 30.4033 41.6031 34.5176 41.6031C38.632 41.6031 42.6535 42.8262 46.0711 45.117C49.4887 47.4079 52.1481 50.663 53.7114 54.4688C48.5622 59.4497 41.6817 62.2391 34.5176 62.25ZM27.601 27.6667C27.601 26.2987 28.0066 24.9614 28.7666 23.824C29.5267 22.6865 30.6069 21.8 31.8708 21.2765C33.1346 20.753 34.5253 20.616 35.867 20.8829C37.2087 21.1498 38.4412 21.8085 39.4085 22.7758C40.3758 23.7432 41.0345 24.9756 41.3014 26.3173C41.5683 27.659 41.4313 29.0497 40.9078 30.3136C40.3843 31.5774 39.4978 32.6576 38.3603 33.4177C37.2229 34.1777 35.8856 34.5833 34.5176 34.5833C32.6832 34.5833 30.924 33.8546 29.6268 32.5575C28.3297 31.2604 27.601 29.5011 27.601 27.6667ZM58.4147 48.4167C55.3248 43.1315 50.5692 39.0205 44.8926 36.7275C46.6535 34.7309 47.8009 32.2685 48.197 29.636C48.5931 27.0034 48.2212 24.3125 47.1259 21.8861C46.0305 19.4596 44.2583 17.4008 42.0219 15.9566C39.7855 14.5125 37.1798 13.7443 34.5176 13.7443C31.8555 13.7443 29.2498 14.5125 27.0134 15.9566C24.777 17.4008 23.0048 19.4596 21.9094 21.8861C20.8141 24.3125 20.4422 27.0034 20.8383 29.636C21.2344 32.2685 22.3818 34.7309 24.1426 36.7275C18.4661 39.0205 13.7105 43.1315 10.6206 48.4167C8.15804 44.2221 6.85693 39.4474 6.85098 34.5833C6.85098 27.2457 9.76585 20.2086 14.9544 15.02C20.1429 9.83154 27.18 6.91667 34.5176 6.91667C41.8553 6.91667 48.8924 9.83154 54.0809 15.02C59.2694 20.2086 62.1843 27.2457 62.1843 34.5833C62.1784 39.4474 60.8773 44.2221 58.4147 48.4167Z" fill="#000f43"/>
</svg>
