<svg width="24" height="24" viewBox="0 0 21 20" fill="none" xmlns="http://www.w3.org/2000/svg">
<path d="M20 9C19.9957 8.94675 19.9957 8.89325 20 8.84C20 8.56 19.92 8.28 19.87 8C19.6871 7.17151 19.3945 6.37112 19 5.62C18.3263 4.24172 17.3446 3.03691 16.1308 2.0988C14.9169 1.16068 13.5035 0.514412 12 0.21L11.16 0.0799999H11H10.71H10.63L9.99996 0C9.65996 0 9.31996 0 8.99996 0H8.83996L7.99996 0.2C6.08 0.593693 4.31806 1.54289 2.93309 2.92964C1.54812 4.31639 0.601186 6.07954 0.209956 8C0.159956 8.28 0.119956 8.56 0.0799561 8.84C0.0842296 8.89325 0.0842296 8.94675 0.0799561 9C0.0799561 9.33 0.0799561 9.67 0.0799561 10C0.0799561 10.33 0.0799561 10.68 0.0799561 11C0.0842296 11.0532 0.0842296 11.1068 0.0799561 11.16C0.0799561 11.44 0.159956 11.72 0.209956 12C0.36742 12.8246 0.633048 13.6249 0.999956 14.38C1.6736 15.7583 2.65532 16.9631 3.86915 17.9012C5.08298 18.8393 6.49637 19.4856 7.99996 19.79L8.83996 19.92L8.99996 20H9.33996H9.47996C9.65996 20 9.82996 20 10.01 20C10.35 20 10.69 20 11.01 19.95H11.17L12 19.8C13.9199 19.4063 15.6818 18.4571 17.0668 17.0704C18.4518 15.6836 19.3987 13.9205 19.79 12C19.84 11.72 19.88 11.44 19.92 11.16C19.9418 11.1044 19.9686 11.0508 20 11C20 10.67 20.05 10.33 20.05 10C20.05 9.67 20 9.32 20 9ZM11.16 2.1L11.66 2.17C13.4677 2.55587 15.0861 3.55586 16.24 5H9.41996L11.16 2.1ZM8.41996 2.18L8.81996 2.12L5.37996 8L3.69996 5.08C4.86357 3.58833 6.51818 2.5573 8.36996 2.17L8.41996 2.18ZM2.58996 13C2.40926 12.5568 2.26869 12.0983 2.16996 11.63C2.16996 11.41 2.08996 11.18 2.06996 10.95C2.06514 10.9101 2.06514 10.8699 2.06996 10.83C2.01661 10.2913 2.01661 9.74868 2.06996 9.21C2.06514 9.17015 2.06514 9.12986 2.06996 9.09C2.06996 8.86 2.12996 8.63 2.16996 8.41C2.25793 7.96303 2.38508 7.52467 2.54996 7.1L5.99996 13H2.58996ZM8.88996 17.91L8.38996 17.84C6.56265 17.4623 4.92486 16.4577 3.75996 15H10.58L8.88996 17.91ZM8.26996 13L6.53996 10L8.26996 7H11.73L13.46 10L11.73 13H8.26996ZM11.63 17.83L11.23 17.89L14.62 12L16.3 14.92C15.1363 16.4117 13.4817 17.4427 11.63 17.83ZM17.96 10.83C17.9648 10.8699 17.9648 10.9101 17.96 10.95C17.96 11.18 17.9 11.41 17.86 11.63C17.7697 12.0634 17.6426 12.4883 17.48 12.9L14 7H17.37C17.5507 7.44318 17.6912 7.90169 17.79 8.37C17.79 8.59 17.87 8.82 17.89 9.05C17.8948 9.08986 17.8948 9.13015 17.89 9.17C17.9433 9.70868 17.9433 10.2513 17.89 10.79L17.96 10.83Z" fill="#000F43"/>
</svg>
