<svg width="91" height="91" viewBox="0 0 91 91" fill="none" xmlns="http://www.w3.org/2000/svg">
<rect width="91" height="91" rx="20" fill="#01003C"/>
<path d="M73.206 26.3156C72.7787 27.0051 69.1278 33.2201 68.6292 33.5484C68.1662 33.8439 65.7757 33.4032 65.0501 33.2581C63.8891 33.1129 61.04 32.0193 60.1497 31.5268C59.2949 31.0014 57.5534 21.8721 56.3426 21.2483C55.1317 20.6244 53.7072 20.0663 52.069 19.5738C50.4664 19.0484 48.5611 18.7858 46.353 18.7858C44.3587 18.7858 42.6136 19.0156 41.1178 19.4753C39.6221 19.9021 38.3578 20.5095 37.325 21.2975C36.3278 22.0855 35.58 23.0377 35.0814 24.154C34.5828 25.2375 34.3335 26.436 34.3335 27.7493C34.3335 29.4238 34.8321 30.8192 35.8293 31.9355C36.862 33.0519 38.2154 34.0041 39.8892 34.7921C41.563 35.5801 43.4683 36.286 45.6051 36.9098C47.7419 37.5336 49.9322 38.2067 52.1758 38.9291C54.4195 39.6186 56.6097 40.4394 58.7465 41.3916C60.8833 42.3109 62.7886 43.4929 64.4624 44.9376C66.1363 46.3494 67.4718 48.0896 68.469 50.1581C69.5017 52.2266 70.0181 54.7383 70.0181 57.6933C70.0181 60.911 69.4127 63.9317 68.2019 66.7554C67.0266 69.5462 65.2816 71.9923 62.9667 74.0936C60.6874 76.1621 57.8918 77.8038 54.5797 79.0186C51.2677 80.2007 47.4748 80.7916 43.2012 80.7916C40.7439 80.7916 38.3222 80.5618 35.9361 80.1021C33.55 79.6753 31.2529 79.0515 29.0449 78.2306C26.8725 77.4098 21.1476 81.7298 19.2245 80.5806C17.3014 79.4315 15.4958 77.928 14 76.5161L21.9934 65.0809C22.3496 64.6212 22.8125 64.2436 23.3824 63.9481C23.9522 63.6198 24.5576 63.4556 25.1986 63.4556C26.089 63.4556 27.0505 63.8004 28.0833 64.4899C29.1161 65.1465 30.3448 65.8853 31.7693 66.7061C33.1939 67.527 34.8499 68.2821 36.7374 68.9716C38.6605 69.6283 40.9576 69.9566 43.6286 69.9566C47.7241 69.9566 50.8937 69.0701 53.1374 67.2971C55.381 65.4913 56.5028 62.9139 56.5028 59.5649C56.5028 57.6934 55.9865 56.1666 54.9537 54.9846C53.9565 53.8026 52.621 52.8176 50.9472 52.0296C49.2733 51.2088 47.368 50.5193 45.2312 49.9611C43.0944 49.4029 40.922 48.7955 38.7139 48.1388C36.5059 47.4822 34.3335 46.6942 32.1967 45.7748C30.0599 44.8555 28.1546 43.6571 26.4807 42.1796C24.8069 40.7021 23.4536 38.8634 22.4208 36.6636C21.4236 34.4309 20.925 31.6893 20.925 28.4388C20.925 25.845 21.477 23.3168 22.5811 20.8543C23.7207 18.3918 25.3589 16.2083 27.4957 14.304C29.6325 12.3997 32.2679 10.8729 35.4019 9.72375C38.5359 8.57458 42.1328 8 46.1928 8C50.7513 8 54.9537 8.65667 58.7999 9.97C62.6462 11.2833 75.2934 16.4218 78 18.7858L73.206 26.3156Z" fill="white"/>
<path d="M65.0501 29.9491C64.6227 30.6386 64.1597 31.1475 63.6611 31.4759C63.1982 31.7714 62.6105 31.9191 61.8983 31.9191C61.1504 31.9191 60.3313 31.6729 59.441 31.1804C58.5862 30.655 57.5534 30.0805 56.3426 29.4566C55.1317 28.8328 53.7072 28.2746 52.069 27.7821C50.4664 27.2568 48.5611 26.9941 46.353 26.9941C44.3587 26.9941 42.6136 27.224 41.1178 27.6836C39.6221 28.1105 38.3578 28.7179 37.325 29.5059C36.3278 30.2939 35.58 31.246 35.0814 32.3624C34.5828 33.4459 34.3335 34.6443 34.3335 35.9576C34.3335 37.6321 34.8321 39.0276 35.8293 40.1439C36.862 41.2602 38.2154 42.2124 39.8892 43.0004C41.563 43.7884 43.4683 44.4943 45.6051 45.1182C47.7419 45.742 49.9322 46.4151 52.1758 47.1374C54.4195 47.8269 56.6097 48.6477 58.7465 49.5999C60.8833 50.5193 62.7886 51.7013 64.4624 53.1459C66.1363 54.5578 67.4718 56.2979 68.469 58.3664C69.5017 60.4349 70.0181 62.9467 70.0181 65.9017C70.0181 69.1194 69.4127 72.14 68.2019 74.9637C67.0266 77.7546 65.2816 80.2006 62.9667 82.302C60.6874 84.3705 57.8918 86.0122 54.5797 87.227C51.2677 88.409 47.4748 89 43.2012 89C40.7439 89 38.3222 88.7702 35.9361 88.3105C33.55 87.8837 31.2529 87.2598 29.0449 86.439C26.8725 85.6181 24.8247 84.6332 22.9016 83.484C20.9785 82.3348 19.269 81.0543 17.7732 79.6425L21.9934 73.2892C22.3496 72.8296 22.8125 72.452 23.3824 72.1565C23.9522 71.8281 24.5576 71.664 25.1986 71.664C26.089 71.664 27.0505 72.0087 28.0833 72.6982C29.1161 73.3549 30.3448 74.0936 31.7693 74.9145C33.1939 75.7353 34.8499 76.4905 36.7374 77.18C38.6605 77.8366 40.9576 78.165 43.6286 78.165C47.7241 78.165 50.8937 77.2785 53.1374 75.5055C55.381 73.6996 56.5028 71.1222 56.5028 67.7732C56.5028 65.9017 55.9865 64.3749 54.9537 63.1929C53.9565 62.0109 52.621 61.0259 50.9472 60.2379C49.2733 59.4171 47.368 58.7276 45.2312 58.1694C43.0944 57.6113 40.922 57.0038 38.7139 56.3472C36.5059 55.6905 34.3335 54.9025 32.1967 53.9832C30.0599 53.0638 28.1546 51.8654 26.4807 50.3879C24.8069 48.9104 23.4536 47.0717 22.4208 44.8719C21.4236 42.6392 20.925 39.8976 20.925 36.6471C20.925 34.0533 21.477 31.5251 22.5811 29.0626C23.7207 26.6001 25.3589 24.4167 27.4957 22.5124C29.6325 20.608 32.2679 19.0813 35.4019 17.9321C38.5359 16.7829 42.1328 16.2084 46.1928 16.2084C50.7513 16.2084 54.9537 16.865 58.7999 18.1784C62.6462 19.4917 66.6803 20.629 68.6292 23.6944L65.0501 29.9491Z" fill="#01003C"/>
</svg>
